<?xml version="1.0" encoding="UTF-8"?>
<svg width="200" height="200" viewBox="0 0 32 32" xmlns="http://www.w3.org/2000/svg">
  <!-- Simple spider for logo (same as favicon) -->
  <!-- Spider body -->
  <ellipse cx="18" cy="16" rx="6" ry="7" fill="#000000"/>
  <ellipse cx="14" cy="16" rx="4" ry="5" fill="#000000"/>
  
  <!-- Spider legs (simplified for small size) -->
  <path d="M12 12 Q8 8 5 6" stroke="#000000" stroke-width="2" fill="none" stroke-linecap="round"/>
  <path d="M10 16 Q6 14 3 13" stroke="#000000" stroke-width="2" fill="none" stroke-linecap="round"/>
  <path d="M10 16 Q6 18 3 19" stroke="#000000" stroke-width="2" fill="none" stroke-linecap="round"/>
  <path d="M12 20 Q8 24 5 26" stroke="#000000" stroke-width="2" fill="none" stroke-linecap="round"/>
  
  <path d="M16 12 Q20 8 23 6" stroke="#000000" stroke-width="2" fill="none" stroke-linecap="round"/>
  <path d="M18 16 Q22 14 25 13" stroke="#000000" stroke-width="2" fill="none" stroke-linecap="round"/>
  <path d="M18 16 Q22 18 25 19" stroke="#000000" stroke-width="2" fill="none" stroke-linecap="round"/>
  <path d="M16 20 Q20 24 23 26" stroke="#000000" stroke-width="2" fill="none" stroke-linecap="round"/>
  
  <!-- Eyes -->
  <circle cx="13" cy="15" r="1" fill="#FFFFFF"/>
  <circle cx="15" cy="15" r="1" fill="#FFFFFF"/>
</svg>
